<?xml version="1.0" encoding="UTF-8"?>
<svg version="1.1" xmlns="http://www.w3.org/2000/svg" width="512" height="512">
<path d="M0 0 C1.02406541 -0.01062483 2.04813082 -0.02124967 3.10322851 -0.03219646 C4.78835832 -0.04215171 4.78835832 -0.04215171 6.50753117 -0.05230808 C7.7023409 -0.06304043 8.89715064 -0.07377277 10.12816674 -0.08483034 C13.44608701 -0.11333786 16.76398139 -0.13732052 20.08194864 -0.15913808 C22.92766214 -0.17859048 25.77334272 -0.20161833 28.61903011 -0.22453194 C55.61421636 -0.44066339 82.61024028 -0.55398623 109.60610199 -0.6453476 C113.12093973 -0.65745502 116.6357766 -0.66978871 120.15061283 -0.68232822 C121.02418153 -0.68543507 121.89775023 -0.68854191 122.79779071 -0.6917429 C136.93795944 -0.74353721 151.07726464 -0.84770908 165.21696042 -0.97212046 C179.7434293 -1.09887047 194.26944967 -1.17229006 208.79645687 -1.19575506 C216.9492917 -1.210383 225.10050554 -1.24894829 233.25278378 -1.34863186 C240.19864265 -1.4335574 247.14269701 -1.47072055 254.08906829 -1.44637828 C257.63037398 -1.43546469 261.1677592 -1.4467501 264.70840549 -1.5201807 C286.99075473 -1.95922042 286.99075473 -1.95922042 293.45659924 3.23731709 C296.35118672 6.07003248 298.70706842 9.12664547 300.88823903 12.53199852 C302.292691 14.68300144 303.95747779 16.53279274 305.70261478 18.4121542 C306.22597416 19.01930264 306.74933353 19.62645107 307.28855228 20.25199795 C309.26801604 22.5241993 311.29844649 24.74675292 313.32761478 26.9746542 C316.45684305 30.43745502 319.45761827 33.96894423 322.39011478 37.5996542 C323.45812321 38.8824577 323.45812321 38.8824577 324.54770756 40.19117641 C326.95261478 43.1621542 326.95261478 43.1621542 328.97153568 46.07234097 C332.4296831 50.6329391 335.0845611 53.68682163 340.7490015 55.12815762 C345.30829973 55.58370957 349.84937222 55.42487924 354.42136478 55.2793417 C356.10944885 55.26854263 357.79757724 55.26336449 359.48569584 55.26350307 C363.90879502 55.25222751 368.32853399 55.17981839 372.75064945 55.0895834 C379.8249941 54.95231212 386.89970449 54.89482222 393.97521305 54.86390972 C396.43001735 54.84231538 398.88217267 54.78597604 401.33628178 54.7253561 C410.75541348 54.57605458 418.69785361 55.20453825 425.87656498 61.97730923 C430.69539054 67.12877968 432.20151337 71.83652745 432.20988369 78.8943243 C432.21338976 79.561418 432.21689584 80.2285117 432.22050816 80.91582036 C432.22982537 83.15520052 432.22489806 85.39432081 432.22004032 87.63371181 C432.22377646 89.25393559 432.22837783 90.87415756 432.23377097 92.49437666 C432.24602159 96.95022264 432.24573806 101.40599366 432.24338222 105.86185265 C432.24297455 110.66643275 432.25400857 115.47098865 432.26349735 120.27555752 C432.28012113 129.69139658 432.28560758 139.10721061 432.28672211 148.52306312 C432.28767221 156.17872915 432.29178064 163.83438691 432.29812336 171.49005032 C432.31574184 193.19764634 432.32496163 214.90522258 432.32346241 236.61282581 C432.32334254 238.36877657 432.32334254 238.36877657 432.32322025 240.16020107 C432.32313849 241.33226575 432.32305673 242.50433043 432.32297249 243.71191221 C432.32216008 262.69503433 432.34128482 281.678077 432.36949699 300.66117615 C432.39823966 320.1552468 432.41203642 339.64927873 432.41030943 359.14337111 C432.40964587 370.08671356 432.41512319 381.02997281 432.43666553 391.97329617 C432.45489582 401.29393437 432.4592097 410.61445168 432.44564669 419.93510002 C432.43912555 424.68810533 432.43896881 429.44087883 432.45635319 434.19386196 C432.47212746 438.55161342 432.46917602 442.90895013 432.45178492 447.26669174 C432.44872451 448.83675161 432.452311 450.40684277 432.46350507 451.97686571 C432.57600938 468.88653952 428.46176957 483.87785371 416.57761478 496.3496542 C406.92165549 505.97471936 393.20275192 512.40429327 379.53426933 512.4194231 C378.81729389 512.42292918 378.10031844 512.42643525 377.36161646 512.43004757 C374.96460973 512.43933453 372.56784739 512.4344453 370.17083073 512.42957973 C368.43267389 512.43331737 366.69451874 512.43791934 364.95636624 512.44331038 C360.18386561 512.45554197 355.41143507 512.45527972 350.63892233 512.45292163 C345.49015417 512.4525135 340.34140849 512.46355228 335.19265079 512.47303677 C325.10631831 512.48964893 315.0200092 512.49514642 304.93366418 512.49626152 C296.73408256 512.49721195 288.53450865 512.501322 280.33492947 512.50766277 C257.08463356 512.52527625 233.83435612 512.53450155 210.58405349 512.53300183 C208.70395105 512.53288196 208.70395105 512.53288196 206.78586674 512.53275967 C205.53093354 512.53267791 204.27600034 512.53259614 202.98303887 512.5325119 C182.6478666 512.53169911 162.31276843 512.55083485 141.9776176 512.5790364 C121.0947036 512.60776892 100.21182573 512.62157647 79.32889146 512.61984885 C67.60592851 512.61918504 55.88304322 512.62467306 44.16009808 512.64620495 C34.17815992 512.66442161 24.19633462 512.66876009 14.21438704 512.6551861 C9.12327785 512.64865879 4.03238514 512.64853082 -1.05870342 512.6658926 C-5.72410063 512.68163874 -10.38910998 512.67874386 -15.05449782 512.66132434 C-16.73753441 512.65825784 -18.42060006 512.66187358 -20.10360237 512.67304449 C-36.98431072 512.77762224 -51.72822347 508.72336425 -64.23488522 496.7871542 C-74.58898568 486.3831945 -80.22707351 472.56477738 -80.32419622 457.9663313 C-80.32109902 456.92459986 -80.31800181 455.88286842 -80.31481075 454.80956936 C-80.31934187 453.68484586 -80.32387298 452.56012237 -80.3285414 451.40131634 C-80.34117542 447.64227296 -80.33956564 443.88337464 -80.33791256 440.1243124 C-80.34389846 437.42504243 -80.35064788 434.72578371 -80.35826778 432.02651882 C-80.37484713 425.46060492 -80.38037596 418.89472695 -80.38149254 412.32879386 C-80.38244457 406.98822512 -80.38656258 401.64766817 -80.39289379 396.30710316 C-80.41049863 381.14705813 -80.41973397 365.98704137 -80.41823284 350.82698605 C-80.41815293 350.0105139 -80.41807302 349.19404175 -80.41799068 348.35282803 C-80.41790892 347.5353524 -80.41782716 346.71787677 -80.41774292 345.87562915 C-80.41693047 332.63495846 -80.43605993 319.39440164 -80.46426742 306.15376387 C-80.49303923 292.54018034 -80.50680532 278.92665226 -80.50507987 265.31303757 C-80.5044174 257.67737529 -80.50984655 250.04183235 -80.53143597 242.40619755 C-80.54970455 235.90364681 -80.55394886 229.40126952 -80.54041712 222.89870415 C-80.53391545 219.58553031 -80.53586809 216.27295831 -80.55112362 212.95977306 C-80.64358847 191.48044617 -78.71898494 175.76202275 -63.46535397 159.48637295 C-52.75647639 149.19270225 -39.80114302 144.08058836 -25.04738522 144.1621542 C-25.05107239 143.53746305 -25.05475956 142.91277191 -25.05855846 142.26915073 C-25.14707866 127.03568784 -25.21317676 111.80230442 -25.2546339 96.56865025 C-25.27521762 89.20161201 -25.30325739 81.83474595 -25.34914303 74.46781826 C-25.3891399 68.04324181 -25.41484846 61.61879013 -25.42373919 55.19409263 C-25.42893238 51.79542229 -25.44104913 48.39710873 -25.47030544 44.99855328 C-25.4994484 41.19496379 -25.50333647 37.39210735 -25.50148678 33.58842373 C-25.51586788 32.47423565 -25.53024899 31.36004757 -25.54506588 30.21209621 C-25.5017212 21.94552746 -24.08277412 14.8538434 -18.73488522 8.3496542 C-12.45592321 3.23887117 -8.31730172 0.06778907 0 0 Z " fill="#6A553B" transform="translate(80.04738521575928,-0.1621541976928711)"/>
<path d="M0 0 C4.2145148 0.77483506 7.74992756 2.06027945 11.68359375 3.7890625 C12.68209854 4.22477066 12.68209854 4.22477066 13.70077515 4.66928101 C15.16645111 5.30921698 16.63119339 5.95129456 18.09512329 6.59521484 C22.24856017 8.42120109 26.40985176 10.22915116 30.5703125 12.0390625 C31.47596451 12.4334552 32.38161652 12.8278479 33.31471252 13.23419189 C44.78547141 18.22285319 56.30060891 23.10722565 67.8125 28 C87.00820394 36.16362068 106.19326705 44.35158739 125.36645126 52.56793213 C127.24524284 53.37296164 129.12414705 54.17772772 131.00308228 54.98242188 C134.48672394 56.47457537 137.96999586 57.96758809 141.453125 59.4609375 C142.49625351 59.90770844 143.53938202 60.35447937 144.61412048 60.81478882 C145.5629158 61.22186066 146.51171112 61.6289325 147.48925781 62.04833984 C148.31677551 62.40310394 149.14429321 62.75786804 149.99688721 63.12338257 C151.34698158 63.71422112 152.68186647 64.34093324 154 65 C154.01417969 63.96101563 154.02835938 62.92203125 154.04296875 61.8515625 C154.30535911 52.54954504 155.01183315 44.64521033 161.453125 37.35546875 C166.23435022 32.9894552 171.56707115 31.75793137 177.87841797 31.70947266 C179.01334686 31.69671295 180.14827576 31.68395325 181.31759644 31.67080688 C182.53021149 31.66858124 183.74282654 31.66635559 184.9921875 31.6640625 C186.25209503 31.6574057 187.51200256 31.6507489 188.81008911 31.64389038 C191.47135588 31.63377917 194.13221385 31.62820587 196.79345703 31.62939453 C200.18499696 31.62959759 203.57569777 31.60229442 206.96703911 31.56785011 C210.22538947 31.54011983 213.48373526 31.54142907 216.7421875 31.5390625 C218.55503738 31.51750595 218.55503738 31.51750595 220.4045105 31.49551392 C228.33154023 31.53825458 233.80744238 32.45494163 240.0234375 37.7109375 C240.46945313 38.26007813 240.91546875 38.80921875 241.375 39.375 C242.06722656 40.19097656 242.06722656 40.19097656 242.7734375 41.0234375 C245.96050079 46.15927835 246.37025972 51.5053594 246.625 57.375 C246.66367188 58.11105469 246.70234375 58.84710938 246.7421875 59.60546875 C246.83557998 61.40327406 246.9188371 63.20160108 247 65 C247.83276711 64.63773064 247.83276711 64.63773064 248.68235779 64.2681427 C276.70880911 52.07758847 304.75117357 39.92798393 332.85522461 27.91723633 C333.8140303 27.50725906 334.772836 27.0972818 335.76069641 26.67488098 C337.60992911 25.88432723 339.45943725 25.0944174 341.30924988 24.30522156 C345.49423047 22.51644341 349.66958521 20.71047047 353.82568359 18.85546875 C354.56872238 18.5248645 355.31176117 18.19426025 356.07731628 17.8536377 C357.44650299 17.24232277 358.81362972 16.62636288 360.17817688 16.00476074 C362.9859496 14.75135634 364.88394283 14 368 14 C368.00238835 14.97330135 368.00477671 15.94660271 368.00723743 16.94939804 C368.06610467 40.66239504 368.14203211 64.37529103 368.23571491 88.08817673 C368.28062723 99.55568267 368.32005244 111.02315788 368.34643555 122.49072266 C368.36945257 132.48908803 368.40289198 142.48735576 368.44870156 152.48564363 C368.47258378 157.77671637 368.49134532 163.06769269 368.49761391 168.35881805 C368.50368739 173.34600208 368.52376873 178.33293958 368.55427551 183.32003212 C368.56301956 185.14361416 368.56678591 186.96722847 368.56500816 188.79083061 C368.5518124 208.58501731 372.26697063 224.87736267 386.51171875 239.59765625 C389.90218854 242.87102975 393.35679569 246.01070416 397 249 C399.01389882 250.6524298 401.01490123 252.31266604 403 254 C403 254.33 403 254.66 403 255 C357.59719853 255.0915871 312.19440685 255.16205477 266.79153119 255.20426132 C261.42938002 255.20926405 256.06722903 255.21444135 250.70507812 255.21972656 C249.10383958 255.22130043 249.10383958 255.22130043 247.47025278 255.22290608 C230.19330604 255.24030379 212.91641262 255.27183801 195.63949749 255.30861118 C177.90728828 255.34603821 160.17510697 255.36823959 142.44285989 255.37635398 C131.50411747 255.38183808 120.56552579 255.39914935 109.62682977 255.43166587 C102.12228025 255.45283549 94.61780848 255.45919449 87.11323127 255.45400551 C82.78567188 255.45144755 78.45837561 255.45532496 74.13086319 255.4768219 C70.16278935 255.49638865 66.19515382 255.497205 62.22705916 255.48359558 C60.79750572 255.48191533 59.36792414 255.48690365 57.93842551 255.49953273 C41.84791785 255.63332987 27.59435495 250.86946301 15.8125 239.625 C6.12025657 229.88608445 -0.18427398 216.30146447 -0.25816262 202.49716854 C-0.25233693 201.70726308 -0.24651125 200.91735762 -0.24050903 200.10351562 C-0.24221788 199.24321778 -0.24392673 198.38291994 -0.24568737 197.49655247 C-0.24896414 194.63303177 -0.23800858 191.76974887 -0.22705078 188.90625 C-0.22648628 186.84598293 -0.226804 184.78571545 -0.22793579 182.72544861 C-0.22850877 177.14548637 -0.21676332 171.5656104 -0.20278788 165.98566818 C-0.19027136 160.14938547 -0.18910929 154.3131007 -0.18673706 148.47680664 C-0.18052501 137.43081382 -0.16411787 126.38486067 -0.14403808 115.33888531 C-0.12167056 102.76095189 -0.1106835 90.18301657 -0.10064721 77.60506821 C-0.07975143 51.73669016 -0.04458076 25.8683473 0 0 Z " fill="#957754" transform="translate(0,257)"/>
<path d="M0 0 C1.02406541 -0.01062483 2.04813082 -0.02124967 3.10322851 -0.03219646 C4.22664839 -0.0388333 5.35006826 -0.04547013 6.50753117 -0.05230808 C7.7023409 -0.06304043 8.89715064 -0.07377277 10.12816674 -0.08483034 C13.44608701 -0.11333786 16.76398139 -0.13732052 20.08194864 -0.15913808 C22.92766214 -0.17859048 25.77334272 -0.20161833 28.61903011 -0.22453194 C55.61421636 -0.44066339 82.61024028 -0.55398623 109.60610199 -0.6453476 C113.12093973 -0.65745502 116.6357766 -0.66978871 120.15061283 -0.68232822 C121.02418153 -0.68543507 121.89775023 -0.68854191 122.79779071 -0.6917429 C136.93795944 -0.74353721 151.07726464 -0.84770908 165.21696042 -0.97212046 C179.7434293 -1.09887047 194.26944967 -1.17229006 208.79645687 -1.19575506 C216.9492917 -1.210383 225.10050554 -1.24894829 233.25278378 -1.34863186 C240.19864265 -1.4335574 247.14269701 -1.47072055 254.08906829 -1.44637828 C257.63037398 -1.43546469 261.1677592 -1.4467501 264.70840549 -1.5201807 C286.99075473 -1.95922042 286.99075473 -1.95922042 293.45659924 3.23731709 C296.35118672 6.07003248 298.70706842 9.12664547 300.88823903 12.53199852 C302.292691 14.68300144 303.95747779 16.53279274 305.70261478 18.4121542 C306.22597416 19.01930264 306.74933353 19.62645107 307.28855228 20.25199795 C309.26801604 22.5241993 311.29844649 24.74675292 313.32761478 26.9746542 C316.43790329 30.41593625 319.4173979 33.92536718 322.32761478 37.5371542 C326.01027863 42.09236558 329.8828778 46.40127976 333.87058353 50.6855917 C336.82164459 53.8750393 339.61239996 57.14562213 342.32761478 60.5371542 C346.93434489 66.26242489 351.92074345 71.58395482 356.94480228 76.93949795 C359.78734348 79.97206732 362.54443052 83.06772924 365.25730228 86.2168417 C368.16014389 89.54775211 371.15279691 92.79828582 374.13230228 96.0605917 C376.96553811 99.3315807 377.07901898 101.16195566 377.08683586 105.41469669 C377.09129371 106.53539858 377.09575155 107.65610046 377.10034448 108.810763 C377.10006794 110.67316707 377.10006794 110.67316707 377.0997858 112.57319546 C377.10346249 113.88416364 377.10713918 115.19513182 377.11092728 116.54582632 C377.12096454 120.19717099 377.12466685 123.84849923 377.12731659 127.49985576 C377.13121462 131.43321449 377.1407934 135.36656014 377.14952946 139.29991055 C377.16930961 148.80605498 377.17936272 158.31220051 377.18825725 167.81836039 C377.19263821 172.2932432 377.19800557 176.76812483 377.20324612 181.24300671 C377.22026108 196.11622847 377.23475515 210.98944948 377.24199486 225.86267948 C377.24390481 229.72406039 377.24582513 233.58544128 377.2477808 237.44682217 C377.24826454 238.40657064 377.24874828 239.36631911 377.24924668 240.35515086 C377.25754654 255.90165217 377.2828815 271.44807652 377.31536148 286.99454422 C377.34842535 302.95042282 377.36644307 318.90626231 377.3696391 334.86217535 C377.37180498 343.82295111 377.38056488 352.78361471 377.40610027 361.74435711 C377.42779822 369.37622287 377.43586223 377.00794924 377.42613349 384.63984235 C377.42158593 388.53351866 377.42350116 392.4269073 377.44289494 396.32054424 C377.4605076 399.88742908 377.45954476 403.45381599 377.44399764 407.02070598 C377.44049438 408.91752141 377.45666226 410.81434194 377.47360212 412.71108496 C377.42432052 419.23733577 377.23189681 424.94256785 372.95261478 430.1621542 C367.33505267 434.65975229 362.43906656 434.70549188 355.42527103 434.5527792 C354.43635365 434.54711941 353.44743626 434.54145962 352.42855167 434.53562832 C349.29023335 434.51335435 346.15308421 434.46317418 343.01511478 434.4121542 C340.87906364 434.39207762 338.74299448 434.37382888 336.60691166 434.3574667 C331.38841819 434.31351931 326.17060004 434.2466979 320.95261478 434.1621542 C320.95114822 432.92178056 320.94968166 431.68140692 320.94817066 430.4034462 C320.91242359 400.92079893 320.85611751 371.43826462 320.77469383 341.9557118 C320.76467708 338.32229652 320.75483283 334.68888079 320.74509525 331.05546474 C320.74315388 330.33215539 320.74121251 329.60884604 320.7392123 328.86361822 C320.70824057 317.1712255 320.69122516 305.47885239 320.67942056 293.7864264 C320.66698393 281.77766615 320.63942606 269.7690083 320.59800172 257.76031274 C320.57517985 251.01993 320.55920867 244.27967931 320.56073093 237.53925419 C320.5614783 231.18873573 320.54349592 224.8385398 320.51144695 218.48810482 C320.50296189 216.16343501 320.50118849 213.83872897 320.5068121 211.51405048 C320.53975268 195.797901 319.74328723 182.72416509 310.95261478 169.1621542 C310.34353275 168.16635342 310.34353275 168.16635342 309.72214603 167.15043545 C301.74024153 155.23609706 288.28604177 148.56439503 274.60656941 145.59160638 C269.62339218 144.78524884 264.63193288 144.87505277 259.59505558 144.8836813 C258.37455071 144.8778889 257.15404583 144.87209649 255.89655596 144.86612856 C252.53056134 144.85212327 249.16476548 144.84690275 245.79875624 144.84547997 C242.16081973 144.84177055 238.52292829 144.82660746 234.88501835 144.81286526 C228.58930215 144.79063686 222.29360208 144.77559706 215.99785519 144.76549816 C206.8953697 144.75088655 197.79294045 144.7253428 188.69048805 144.69716688 C173.92086357 144.65174393 159.15123097 144.61511056 144.38156986 144.5840292 C130.03780537 144.55382522 115.69406072 144.51946646 101.35031986 144.47953701 C100.0231601 144.47584469 100.0231601 144.47584469 98.66918903 144.47207777 C94.23035538 144.45970281 89.79152197 144.44724635 85.35268867 144.43474936 C48.55269142 144.33124893 11.75267053 144.24202349 -25.04738522 144.1621542 C-25.14102346 128.29769719 -25.21145952 112.43331538 -25.2546339 96.56865025 C-25.27521762 89.20161201 -25.30325739 81.83474595 -25.34914303 74.46781826 C-25.3891399 68.04324181 -25.41484846 61.61879013 -25.42373919 55.19409263 C-25.42893238 51.79542229 -25.44104913 48.39710873 -25.47030544 44.99855328 C-25.4994484 41.19496379 -25.50333647 37.39210735 -25.50148678 33.58842373 C-25.51586788 32.47423565 -25.53024899 31.36004757 -25.54506588 30.21209621 C-25.5017212 21.94552746 -24.08277412 14.8538434 -18.73488522 8.3496542 C-12.45592321 3.23887117 -8.31730172 0.06778907 0 0 Z " fill="#EBE4DC" transform="translate(80.04738521575928,-0.1621541976928711)"/>
<path d="M0 0 C9.73633311 -0.1162489 19.47249901 -0.20489445 29.20938683 -0.25906086 C33.73147609 -0.28506845 38.25308783 -0.32030298 42.77490234 -0.37719727 C47.14511379 -0.43183507 51.51486819 -0.46148689 55.88539505 -0.47438622 C57.54627291 -0.48356949 59.20712795 -0.50150164 60.8678093 -0.52865028 C71.03561457 -0.68814416 80.09219314 -0.57322142 87.9234314 6.8144989 C92.74237699 11.96640797 94.24889795 16.67383663 94.25726891 23.7321701 C94.26077498 24.3992638 94.26428105 25.0663575 94.26789337 25.75366616 C94.27721059 27.99304633 94.27228328 30.23216661 94.26742554 32.47155762 C94.27116167 34.09178139 94.27576305 35.71200336 94.28115618 37.33222246 C94.2934068 41.78806844 94.29312327 46.24383946 94.29076743 50.69969845 C94.29035977 55.50427855 94.30139378 60.30883445 94.31088257 65.11340332 C94.32750635 74.52924239 94.33299279 83.94505641 94.33410732 93.36090893 C94.33505743 101.01657495 94.33916585 108.67223271 94.34550858 116.32789612 C94.36312705 138.03549215 94.37234684 159.74306839 94.37084763 181.45067161 C94.37076772 182.62130545 94.3706878 183.79193929 94.37060547 184.99804688 C94.37052371 186.17011155 94.37044195 187.34217623 94.37035771 188.54975802 C94.3695453 207.53288013 94.38867003 226.5159228 94.4168822 245.49902195 C94.44562488 264.9930926 94.45942164 284.48712453 94.45769465 303.98121691 C94.45703108 314.92455936 94.46250841 325.86781861 94.48405075 336.81114197 C94.50228103 346.13178018 94.50659492 355.45229749 94.4930319 364.77294582 C94.48651076 369.52595113 94.48635402 374.27872464 94.5037384 379.03170776 C94.51951268 383.38945923 94.51656123 387.74679593 94.49917014 392.10453755 C94.49610973 393.67459741 94.49969621 395.24468857 94.51089029 396.81471151 C94.6233946 413.72438532 90.50915479 428.71569952 78.625 441.1875 C65.13156732 454.6377606 48.04356343 457.79895937 29.64233398 457.92602539 C22.79293993 457.85067172 16.973857 457.65815581 11.59082031 453.05859375 C9.18184616 450.50338794 7.09983703 447.81754783 5 445 C3.57818553 443.74890082 2.1235425 442.5330915 0.625 441.375 C-10.09696268 432.0073905 -16.01597176 418.03309835 -17 404 C-17.2027075 396.00053633 -17.12615471 388.00014933 -17 380 C-15.19982422 379.97812622 -15.19982422 379.97812622 -13.36328125 379.95581055 C-8.88268215 379.89754982 -4.40257107 379.82031967 0.07763672 379.73754883 C2.01147502 379.70442963 3.94540696 379.67635776 5.87939453 379.65356445 C8.66999979 379.61977815 11.45975691 379.5674517 14.25 379.51171875 C15.10553467 379.50532883 15.96106934 379.4989389 16.8425293 379.49235535 C23.38711417 379.33442168 29.09221493 378.29561979 34.375 374.125 C37.46465986 370.08467556 38.24996442 366.40095949 38.26564884 361.37831402 C38.27394783 360.25163899 38.28224682 359.12496396 38.29079729 357.96414727 C38.28974645 356.73128308 38.2886956 355.4984189 38.28761292 354.22819519 C38.29426073 352.91466373 38.30090854 351.60113227 38.30775779 350.24779683 C38.32581728 346.60322071 38.33135031 342.95871694 38.33474457 339.31410158 C38.34050578 335.38282279 38.35763171 331.45159032 38.37309265 327.52033997 C38.40782945 318.0288066 38.42342788 308.53727713 38.43721595 299.04569408 C38.44417904 294.57529854 38.45333533 290.10490761 38.46232414 285.63451576 C38.49152324 270.77404452 38.51631847 255.91357779 38.52694798 241.05308056 C38.52763867 240.10219784 38.52832936 239.15131511 38.52904099 238.17161776 C38.529733 237.21846869 38.53042502 236.26531961 38.531138 235.28328723 C38.53254999 233.3518627 38.53397081 231.42043818 38.53540039 229.48901367 C38.53610556 228.53096171 38.53681073 227.57290974 38.53753727 226.5858259 C38.5497901 211.05883665 38.5925922 195.53209141 38.64834059 180.00520345 C38.70511623 164.0627845 38.73559769 148.12048895 38.73996013 132.17796785 C38.74304239 123.22720003 38.75754893 114.27677139 38.80124092 105.3261013 C38.8383374 97.70520705 38.85152599 90.08474385 38.83353604 82.46377226 C38.8250813 78.57592805 38.82792619 74.6889641 38.86135483 70.8012352 C38.89729192 66.58444838 38.87888674 62.36962884 38.85523987 58.15275574 C38.87426552 56.92658372 38.89329117 55.7004117 38.91289335 54.43708295 C38.83450144 48.57477744 38.51271921 44.86615096 34.5925436 40.33932972 C33.41654507 39.20351188 32.22106584 38.08722258 31 37 C30.22914063 36.14792969 29.45828125 35.29585937 28.6640625 34.41796875 C27.99117188 33.68191406 27.31828125 32.94585937 26.625 32.1875 C23.55253227 28.78916448 20.61557378 25.32409477 17.75 21.75 C13.47837054 16.44650268 8.88294981 11.4997941 4.16503906 6.59472656 C0 2.2111285 0 2.2111285 0 0 Z " fill="#645039" transform="translate(418,55)"/>
<path d="M0 0 C3.97125762 1.81522135 6.45476823 4.39404588 9.3125 7.625 C9.79960449 8.16624512 10.28670898 8.70749023 10.78857422 9.26513672 C13.9803864 12.82088108 17.13767812 16.40749735 20.265625 20.01953125 C22.27264538 22.31133155 24.32402851 24.55996752 26.375 26.8125 C29.48528851 30.25378205 32.46478312 33.76321298 35.375 37.375 C39.05766385 41.93021138 42.93026302 46.23912556 46.91796875 50.5234375 C49.86902981 53.71288511 52.65978518 56.98346793 55.375 60.375 C59.98173011 66.10027069 64.96812867 71.42180063 69.9921875 76.77734375 C72.8347287 79.80991312 75.59181573 82.90557505 78.3046875 86.0546875 C81.20752911 89.38559792 84.20018213 92.63613162 87.1796875 95.8984375 C90.01292332 99.1694265 90.12640419 100.99980146 90.13422108 105.2525425 C90.13867892 106.37324438 90.14313676 107.49394626 90.14772969 108.6486088 C90.14754533 109.89021151 90.14736097 111.13181422 90.14717102 112.41104126 C90.15084771 113.72200944 90.1545244 115.03297763 90.1583125 116.38367212 C90.16834976 120.0350168 90.17205207 123.68634504 90.17470181 127.33770156 C90.17859984 131.27106029 90.18817862 135.20440595 90.19691467 139.13775635 C90.21669483 148.64390078 90.22674794 158.15004631 90.23564246 167.65620619 C90.24002343 172.13108901 90.24539079 176.60597063 90.25063133 181.08085251 C90.2676463 195.95407427 90.28214037 210.82729528 90.28938007 225.70052528 C90.29129002 229.56190619 90.29321035 233.42328709 90.29516602 237.28466797 C90.29564976 238.24441644 90.2961335 239.20416491 90.2966319 240.19299667 C90.30493175 255.73949797 90.33026672 271.28592232 90.36274669 286.83239003 C90.39581056 302.78826862 90.41382829 318.74410811 90.41702431 334.70002115 C90.4191902 343.66079691 90.4279501 352.62146051 90.45348549 361.58220291 C90.47518344 369.21406868 90.48324744 376.84579504 90.47351871 384.47768815 C90.46897115 388.37136446 90.47088637 392.26475311 90.49028015 396.15839005 C90.50789282 399.72527489 90.50692998 403.2916618 90.49138286 406.85855179 C90.4878796 408.75536721 90.50404748 410.65218775 90.52098733 412.54893076 C90.46852807 419.4959927 89.82559474 424.13044425 86 430 C81.25566494 434.03409427 76.71986009 434.56212803 70.66015625 434.390625 C69.89319931 434.38496521 69.12624237 434.37930542 68.33604431 434.37347412 C65.91086686 434.35126494 63.48722306 434.30110262 61.0625 434.25 C59.40822462 434.2299148 57.75392584 434.21166758 56.09960938 434.1953125 C52.06582452 434.15145159 48.03317134 434.08253637 44 434 C44.99 433.34 45.98 432.68 47 432 C51.07818511 428.9205541 53.48516185 426.89263291 55 422 C55.30050645 419.23866653 55.30050645 419.23866653 55.26171303 416.27788067 C55.26917852 415.12885507 55.27664401 413.97982948 55.28433573 412.79598492 C55.282401 411.53820904 55.28046626 410.28043315 55.2784729 408.98454285 C55.28347651 407.63141445 55.2893525 406.27828905 55.29602563 404.92516786 C55.3118318 401.20813465 55.31525665 397.49117701 55.31667423 393.77411425 C55.3203672 389.76528114 55.33552217 385.75648954 55.34928894 381.74768066 C55.37156882 374.80255251 55.38657773 367.85743911 55.39665604 360.91228294 C55.41123809 350.87074337 55.43677359 340.82925519 55.46498732 330.78774575 C55.51046392 314.49628746 55.54707515 298.20482178 55.578125 281.91333008 C55.60830698 266.08714499 55.64265564 250.260978 55.68261719 234.43481445 C55.68507874 233.45938052 55.68754028 232.48394658 55.69007643 231.47895404 C55.70245096 226.58551574 55.71490751 221.69207765 55.72740483 216.79863966 C55.83098563 176.19911827 55.9201846 135.59957461 56 95 C55.11413208 94.93574326 54.22826416 94.87148651 53.31555176 94.80528259 C52.14987671 94.71863846 50.98420166 94.63199432 49.78320312 94.54272461 C48.62921021 94.45784286 47.47521729 94.37296112 46.28625488 94.2855072 C42.29928445 93.93912239 38.42397389 93.32863926 34.5 92.5625 C29.27890365 91.57699661 24.08583015 90.73594695 18.8125 90.0625 C10.86501267 88.84513893 6.63928588 85.31458355 2 79 C-0.11352406 74.81329156 -0.24292398 71.2981869 -0.22705078 66.6394043 C-0.22734283 65.91690994 -0.22763489 65.19441559 -0.22793579 64.45002747 C-0.22654839 62.07463345 -0.21101525 59.69955761 -0.1953125 57.32421875 C-0.19158027 55.67226839 -0.18873429 54.0203158 -0.18673706 52.36836243 C-0.17911714 48.02987509 -0.15948281 43.6915226 -0.1373291 39.35308838 C-0.11683526 34.92225977 -0.10772779 30.49140927 -0.09765625 26.06054688 C-0.07623531 17.37363618 -0.04211926 8.68683488 0 0 Z " fill="#D8CABC" transform="translate(367,0)"/>
<path d="M0 0 C14.93750658 11.97618766 24.23882166 27.91953223 27.35400391 46.78369141 C27.35400391 52.72369141 27.35400391 58.66369141 27.35400391 64.78369141 C-17.19599609 64.78369141 -61.74599609 64.78369141 -107.64599609 64.78369141 C-107.64599609 40.93789775 -104.09568117 23.14211099 -87.29052734 6.29931641 C-63.88545714 -15.96488627 -26.5222131 -19.59858583 0 0 Z " fill="#FEB656" transform="translate(240.64599609375,79.21630859375)"/>
<path d="M0 0 C0 58.41 0 116.82 0 177 C13.53 177 27.06 177 41 177 C41 177.33 41 177.66 41 178 C27.47 178 13.94 178 0 178 C0.8338338 203.01501389 1.6457004 223.63062341 20.90820312 241.79492188 C24.64947963 245.23825828 28.46316968 248.56929792 32.3984375 251.7890625 C33.68621094 252.88347656 33.68621094 252.88347656 35 254 C35 254.33 35 254.66 35 255 C30.48372286 255.22469996 25.97078111 255.38677455 21.45019531 255.49438477 C19.91739163 255.53928735 18.38496553 255.60044029 16.85351562 255.67895508 C2.51793679 256.39479828 2.51793679 256.39479828 -3.68359375 250.80078125 C-5.14766166 249.22360339 -6.58948106 247.62524495 -8 246 C-9.09826556 245.01092494 -10.2141013 244.04057106 -11.35546875 243.1015625 C-22.95635377 232.95678856 -30.8832126 220.5445245 -33 205 C-33.09940194 202.32126465 -33.15462755 199.66786954 -33.15821838 196.9894104 C-33.16315636 196.2002418 -33.16809434 195.4110732 -33.17318195 194.59799039 C-33.18849541 191.96327818 -33.19690083 189.32859023 -33.20532227 186.69384766 C-33.21490563 184.80135893 -33.22491598 182.90887233 -33.23532104 181.01638794 C-33.2623265 175.88468908 -33.28335966 170.75298107 -33.30332303 165.62125063 C-33.32520949 160.25605894 -33.35258516 154.89089534 -33.37937927 149.52572632 C-33.4292702 139.36864209 -33.47422238 129.21154224 -33.51740164 119.0544275 C-33.56680478 107.48979818 -33.6217115 95.92519704 -33.67708123 84.36059499 C-33.79084601 60.57375629 -33.89769703 36.78689056 -34 13 C-32.90291718 12.59143768 -31.80583435 12.18287537 -30.67550659 11.76193237 C-29.22098671 11.21878748 -27.76648962 10.67558154 -26.31201172 10.13232422 C-25.59071579 9.86389206 -24.86941986 9.5954599 -24.12626648 9.31889343 C-19.04620207 7.41955497 -14.05791235 5.3812177 -9.125 3.125 C-2.25787815 0 -2.25787815 0 0 0 Z " fill="#7F6749" transform="translate(401,257)"/>
<path d="M0 0 C1.13492889 -0.0127597 2.26985779 -0.02551941 3.43917847 -0.03866577 C4.65179352 -0.04089142 5.86440857 -0.04311707 7.11376953 -0.04541016 C8.37367706 -0.05206696 9.63358459 -0.05872375 10.93167114 -0.06558228 C13.59293791 -0.07569349 16.25379589 -0.08126679 18.91503906 -0.08007812 C22.306579 -0.07987506 25.6972798 -0.10717824 29.08862114 -0.14162254 C32.34697151 -0.16935283 35.60531729 -0.16804359 38.86376953 -0.17041016 C40.67661942 -0.19196671 40.67661942 -0.19196671 42.52609253 -0.21395874 C50.45312226 -0.17121807 55.92902441 0.74546897 62.14501953 6.00146484 C62.59103516 6.55060547 63.03705078 7.09974609 63.49658203 7.66552734 C64.18880859 8.48150391 64.18880859 8.48150391 64.89501953 9.31396484 C68.83484071 15.66284865 68.44346787 22.36954919 68.45751953 29.59130859 C68.46750473 31.37773018 68.46750473 31.37773018 68.47769165 33.20024109 C68.48780043 35.71591654 68.49250922 38.23161871 68.4921875 40.74731445 C68.49655491 44.57922987 68.53288011 48.40998781 68.57080078 52.24169922 C68.57667055 54.69156509 68.58063887 57.14143641 68.58251953 59.59130859 C68.59689056 60.72909256 68.6112616 61.86687653 68.62606812 63.03913879 C68.57873979 71.35447724 67.11508808 77.54864479 61.87158203 84.10302734 C54.10610105 90.28011448 47.82974296 90.88815482 38.15283203 90.82177734 C36.91795044 90.82560425 35.68306885 90.82943115 34.4107666 90.83337402 C31.8086668 90.8360872 29.20653945 90.82876794 26.60449219 90.81201172 C22.63430652 90.79059598 18.66593053 90.81183618 14.69580078 90.83740234 C12.16064056 90.83475897 9.62548146 90.82963378 7.09033203 90.82177734 C5.90991333 90.82987427 4.72949463 90.83797119 3.51330566 90.84631348 C-4.88726927 90.7512974 -10.20355504 89.47540854 -16.69091797 83.85302734 C-20.56899182 79.31014083 -22.25066657 76.19570294 -22.29833984 70.15844727 C-22.31425171 68.94335983 -22.33016357 67.7282724 -22.34655762 66.47636414 C-22.34675903 65.17109268 -22.34696045 63.86582123 -22.34716797 62.52099609 C-22.35427657 61.15724884 -22.36197659 59.79350455 -22.37023926 58.42976379 C-22.38366537 55.57426643 -22.3852622 52.71904542 -22.37939453 49.86352539 C-22.37351012 46.2217866 -22.40404349 42.58138641 -22.44451141 38.93990612 C-22.47049252 36.12324505 -22.47325637 33.30690146 -22.46961975 30.4901371 C-22.47211525 28.50052684 -22.49674464 26.51098357 -22.52185059 24.52153015 C-22.465776 17.14241183 -21.86671631 11.93685233 -16.87841797 6.29052734 C-11.96595793 1.50402782 -6.7633354 0.05192909 0 0 Z " fill="#FEB555" transform="translate(177.87841796875,288.70947265625)"/>
<path d="M0 0 C3.97125762 1.81522135 6.45476823 4.39404588 9.3125 7.625 C9.79960449 8.16624512 10.28670898 8.70749023 10.78857422 9.26513672 C13.9803864 12.82088108 17.13767812 16.40749735 20.265625 20.01953125 C22.27264538 22.31133155 24.32402851 24.55996752 26.375 26.8125 C29.48528851 30.25378205 32.46478312 33.76321298 35.375 37.375 C39.05766385 41.93021138 42.93026302 46.23912556 46.91796875 50.5234375 C49.86902981 53.71288511 52.65978518 56.98346793 55.375 60.375 C59.98173011 66.10027069 64.96812867 71.42180063 69.9921875 76.77734375 C72.83417541 79.80932285 75.59231876 82.90277397 78.30078125 86.0546875 C81.22228759 89.39930855 84.25797396 92.64215556 87.27734375 95.8984375 C89 98 89 98 89 100 C46.66324228 94.79849948 46.66324228 94.79849948 31.86230469 92.05249023 C27.52356898 91.24806461 23.18829985 90.62552617 18.8125 90.0625 C10.86501267 88.84513893 6.63928588 85.31458355 2 79 C-0.11352406 74.81329156 -0.24292398 71.2981869 -0.22705078 66.6394043 C-0.22734283 65.91690994 -0.22763489 65.19441559 -0.22793579 64.45002747 C-0.22654839 62.07463345 -0.21101525 59.69955761 -0.1953125 57.32421875 C-0.19158027 55.67226839 -0.18873429 54.0203158 -0.18673706 52.36836243 C-0.17911714 48.02987509 -0.15948281 43.6915226 -0.1373291 39.35308838 C-0.11683526 34.92225977 -0.10772779 30.49140927 -0.09765625 26.06054688 C-0.07623531 17.37363618 -0.04211926 8.68683488 0 0 Z " fill="#B39B7D" transform="translate(367,0)"/>
<path d="M0 0 C4.69557647 -0.09954745 9.39052663 -0.17178467 14.08691406 -0.21972656 C15.68142408 -0.23973053 17.27586178 -0.26694301 18.87011719 -0.30175781 C36.46967992 -0.67621659 36.46967992 -0.67621659 44.0234375 5.7109375 C44.46945313 6.26007813 44.91546875 6.80921875 45.375 7.375 C46.06722656 8.19097656 46.06722656 8.19097656 46.7734375 9.0234375 C50.71325868 15.37232131 50.32188584 22.07902185 50.3359375 29.30078125 C50.3459227 31.08720284 50.3459227 31.08720284 50.35610962 32.90971375 C50.3662184 35.4253892 50.37092719 37.94109137 50.37060547 40.45678711 C50.37497288 44.28870253 50.41129808 48.11946046 50.44921875 51.95117188 C50.45508852 54.40103775 50.45905684 56.85090907 50.4609375 59.30078125 C50.47530853 60.43856522 50.48967957 61.57634918 50.50448608 62.74861145 C50.45715776 71.06394989 48.99350605 77.25811744 43.75 83.8125 C35.85952585 90.08901353 29.57878602 90.55894863 19.75 90.390625 C18.49614502 90.38496521 17.24229004 90.37930542 15.95043945 90.37347412 C12.64248624 90.35496138 9.33533535 90.31912524 6.02764893 90.2746582 C2.64222961 90.23348818 -0.74330791 90.21541714 -4.12890625 90.1953125 C-10.75291418 90.15133594 -17.37639157 90.08449067 -24 90 C-24 89.67 -24 89.34 -24 89 C-23.28457031 88.9906543 -22.56914062 88.98130859 -21.83203125 88.97167969 C-18.55401808 88.91761155 -15.27737639 88.83403529 -12 88.75 C-10.87464844 88.73582031 -9.74929687 88.72164063 -8.58984375 88.70703125 C-1.64384079 88.50393175 3.10952724 87.77293747 9 84 C13.18013606 78.82983171 15.23396957 73.97533763 15.30639648 67.34277344 C15.32238388 66.23101746 15.33837128 65.11926147 15.35484314 63.97381592 C15.36020584 62.78105042 15.36556854 61.58828491 15.37109375 60.359375 C15.38012222 59.12262024 15.3891507 57.88586548 15.39845276 56.6116333 C15.41295155 53.99583352 15.42184106 51.37999751 15.42553711 48.76416016 C15.4319646 44.77850769 15.4865966 40.79392868 15.53710938 36.80859375 C15.54657606 34.26302836 15.55380992 31.7174535 15.55859375 29.171875 C15.57812607 27.98720642 15.59765839 26.80253784 15.61778259 25.58197021 C15.57789118 18.20215728 14.5033936 12.95684612 10 7 C6.92513972 4.00201122 4.04970013 2.38846862 0 1 C0 0.67 0 0.34 0 0 Z " fill="#FDA633" transform="translate(196,289)"/>
<path d="M0 0 C2.91140604 1.67923794 4.94604258 3.62266348 7.0859375 6.203125 C7.7871875 6.96625 8.4884375 7.729375 9.2109375 8.515625 C15.24699525 17.16730777 14.0859375 22.90989337 14.0859375 34.203125 C-4.0640625 34.203125 -22.2140625 34.203125 -40.9140625 34.203125 C-40.9140625 13.19890559 -40.9140625 13.19890559 -32.9140625 4.203125 C-23.03800077 -3.83592184 -11.76178952 -5.40509421 0 0 Z " fill="#ECE4DB" transform="translate(213.9140625,109.796875)"/>
</svg>
